<?xml version="1.0" encoding="UTF-8" standalone="no"?>
<!-- Created with Inkscape (http://www.inkscape.org/) -->

<svg
   xmlns:dc="http://purl.org/dc/elements/1.1/"
   xmlns:cc="http://creativecommons.org/ns#"
   xmlns:rdf="http://www.w3.org/1999/02/22-rdf-syntax-ns#"
   xmlns:svg="http://www.w3.org/2000/svg"
   xmlns="http://www.w3.org/2000/svg"
   xmlns:xlink="http://www.w3.org/1999/xlink"
   xmlns:sodipodi="http://sodipodi.sourceforge.net/DTD/sodipodi-0.dtd"
   xmlns:inkscape="http://www.inkscape.org/namespaces/inkscape"
   id="svg2"
   version="1.1"
   inkscape:version="0.91 r13725"
   width="1920"
   height="1080"
   viewBox="0 0 1920 1080"
   sodipodi:docname="background.svg"
   inkscape:export-filename="/home/andy/tmp/ansible/andy/provisioning/roles/nectar.xfce-desktop/files/nectar-bg.png"
   inkscape:export-xdpi="90"
   inkscape:export-ydpi="90">
  <metadata
     id="metadata8">
    <rdf:RDF>
      <cc:Work
         rdf:about="">
        <dc:format>image/svg+xml</dc:format>
        <dc:type
           rdf:resource="http://purl.org/dc/dcmitype/StillImage" />
        <dc:title></dc:title>
      </cc:Work>
    </rdf:RDF>
  </metadata>
  <defs
     id="defs6">
    <linearGradient
       inkscape:collect="always"
       id="linearGradient4148">
      <stop
         style="stop-color:#57b4d6;stop-opacity:1"
         offset="0"
         id="stop4150" />
      <stop
         style="stop-color:#3c7190;stop-opacity:1"
         offset="1"
         id="stop4152" />
    </linearGradient>
    <radialGradient
       inkscape:collect="always"
       xlink:href="#linearGradient4148"
       id="radialGradient4154"
       cx="937.6236"
       cy="492.92538"
       fx="937.6236"
       fy="492.92538"
       r="961"
       gradientTransform="matrix(1.1731203,0,-4.2480101e-5,0.81309355,-160.1583,112.6143)"
       gradientUnits="userSpaceOnUse" />
  </defs>
  <sodipodi:namedview
     pagecolor="#ffffff"
     bordercolor="#666666"
     borderopacity="1"
     objecttolerance="10"
     gridtolerance="10"
     guidetolerance="10"
     inkscape:pageopacity="0"
     inkscape:pageshadow="2"
     inkscape:window-width="3440"
     inkscape:window-height="1376"
     id="namedview4"
     showgrid="false"
     inkscape:zoom="0.47140452"
     inkscape:cx="577.03157"
     inkscape:cy="823.71194"
     inkscape:window-x="1920"
     inkscape:window-y="27"
     inkscape:window-maximized="1"
     inkscape:current-layer="svg2" />
  <rect
     style="opacity:1;fill:url(#radialGradient4154);fill-opacity:1;stroke:#729fcf;stroke-width:1.99711037;stroke-miterlimit:1;stroke-dasharray:none;stroke-opacity:1"
     id="rect4138"
     width="1918.0029"
     height="1078.0029"
     x="0.99853516"
     y="0.99853516" />
  <g
     transform="matrix(3.3684778,0,0,3.3684778,-247.69968,-1135.7319)"
     id="layer1"
     inkscape:label="Layer 1">
    <g
       transform="matrix(0.92531297,0,0,0.92531297,24.735255,50.027339)"
       id="g4882">
      <path
         d="m 359.2618,461.34153 -6.59125,-11.41625 c -0.07,-0.1025 -0.375,-0.2775 -0.505,-0.28875 l -13.17875,0 c -0.13125,0.0125 -0.4325,0.18625 -0.50625,0.295 l -6.59125,11.415 c -0.0537,0.11375 -0.0537,0.465 0.002,0.58375 l 6.5925,11.41375 c 0.07,0.10375 0.375,0.27875 0.505,0.28875 l 13.1825,0 c 0.12375,-0.01 0.42875,-0.185 0.5025,-0.2925 l 0.29625,-0.51375 c 0.0225,-0.0437 0.04,-0.0925 0.065,-0.135 l 6.24,-10.80875 c 0.04,-0.13625 0.0387,-0.43375 -0.0138,-0.54125"
         style="fill:#ffc000;fill-opacity:1;fill-rule:nonzero;stroke:none"
         id="path334"
         inkscape:connector-curvature="0" />
      <path
         d="M 383.05505,446.31865 376.4613,434.8974 c -0.16875,-0.2925 -0.725,-0.61375 -1.06375,-0.61375 l -13.1875,0 c -0.33875,0 -0.89625,0.32125 -1.06375,0.61375 l -6.59375,11.42125 c -0.17,0.2925 -0.17,0.935 0,1.2275 l 6.59375,11.42125 c 0.16875,0.2925 0.725,0.61375 1.06375,0.61375 l 13.1875,0 c 0.33875,0 0.895,-0.32125 1.06375,-0.61375 l 6.59375,-11.42125 c 0.16875,-0.2925 0.16875,-0.935 0,-1.2275"
         style="fill:#ffc000;fill-opacity:1;fill-rule:nonzero;stroke:none"
         id="path338"
         inkscape:connector-curvature="0" />
      <path
         d="m 375.72955,462.37752 -13.17875,0 c -0.13125,0.0125 -0.4325,0.18625 -0.5075,0.29375 l -0.29625,0.51625 c -0.0225,0.0437 -0.04,0.0912 -0.065,0.1325 l -6.23875,10.8075 c -0.0413,0.13625 -0.04,0.43375 0.0125,0.5425 l 6.59125,11.41625 c 0.0712,0.1025 0.37625,0.27875 0.50625,0.28875 l 13.18125,0 c 0.125,-0.01 0.43,-0.18625 0.50375,-0.29375 l 6.59125,-11.41625 c 0.0525,-0.1125 0.0525,-0.465 -0.004,-0.5825 l -6.59125,-11.415 c -0.07,-0.10375 -0.375,-0.28 -0.505,-0.29"
         style="fill:#ffc000;fill-opacity:1;fill-rule:nonzero;stroke:none"
         id="path342"
         inkscape:connector-curvature="0" />
    </g>
    <g
       transform="matrix(0.92531297,0,0,0.92531297,24.426648,44.980456)"
       id="g4869">
      <path
         d="m 322.8158,531.42377 c 0,-3.7825 2.85,-6.8725 6.76625,-6.8725 2.29,0 3.96875,0.905 5.0875,1.97125 l -0.95875,1.09125 c -0.98625,-0.93125 -2.3175,-1.65125 -4.12875,-1.65125 -3.01,0 -5.195,2.4775 -5.195,5.46125 0,2.98375 2.185,5.46125 5.195,5.46125 1.81125,0 3.1425,-0.72 4.12875,-1.6525 l 0.95875,1.0925 c -1.11875,1.06625 -2.7975,1.97125 -5.0875,1.97125 -3.91625,0 -6.76625,-3.09 -6.76625,-6.8725"
         style="fill:#231f20;fill-opacity:1;fill-rule:nonzero;stroke:none"
         id="path346"
         inkscape:connector-curvature="0" />
      <path
         d="m 337.28143,519.17015 1.51875,0 0,18.9125 -1.51875,0 0,-18.9125 z"
         style="fill:#231f20;fill-opacity:1;fill-rule:nonzero;stroke:none"
         id="path348"
         inkscape:connector-curvature="0" />
      <path
         d="m 341.43468,531.42377 c 0,-3.7825 2.85,-6.8725 6.9,-6.8725 4.04875,0 6.89875,3.09 6.89875,6.8725 0,3.7825 -2.85,6.8725 -6.89875,6.8725 -4.05,0 -6.9,-3.09 -6.9,-6.8725 m 12.22625,0 c 0,-2.98375 -2.10375,-5.46125 -5.32625,-5.46125 -3.17125,0 -5.32875,2.4775 -5.32875,5.46125 0,2.98375 2.1575,5.46125 5.32875,5.46125 3.2225,0 5.32625,-2.4775 5.32625,-5.46125"
         style="fill:#231f20;fill-opacity:1;fill-rule:nonzero;stroke:none"
         id="path360"
         inkscape:connector-curvature="0" />
      <path
         d="m 367.14293,536.21852 c -1.0925,1.545 -2.85,2.0775 -4.555,2.0775 -2.79625,0 -4.90125,-1.9175 -4.90125,-5.11375 l 0,-8.41875 1.51875,0 0,8.205 c 0,2.53125 1.54375,3.91625 3.7825,3.91625 2.2375,0 3.67625,-1.35875 4.155,-3.25 l 0,-8.87125 1.51875,0 0,13.32 -1.51875,0 0,-1.865 z"
         style="fill:#231f20;fill-opacity:1;fill-rule:nonzero;stroke:none"
         id="path364"
         inkscape:connector-curvature="0" />
      <path
         d="m 382.69405,536.27178 c -1.27875,1.35875 -2.9575,2.025 -4.90125,2.025 -3.96875,0 -6.76625,-3.09 -6.76625,-6.8725 0,-3.78375 2.7975,-6.87375 6.76625,-6.87375 1.94375,0 3.6225,0.66625 4.90125,2.05125 l 0,-7.43125 1.51875,0 0,18.9125 -1.51875,0 0,-1.81125 z m 0,-2.05125 0,-5.62 c -0.8525,-1.465 -2.5575,-2.6375 -4.90125,-2.6375 -3.06375,0 -5.195,2.4775 -5.195,5.46125 0,2.9825 2.13125,5.46 5.195,5.46 2.37,0 4.075,-1.1725 4.90125,-2.66375"
         style="fill:#231f20;fill-opacity:1;fill-rule:nonzero;stroke:none"
         id="path368"
         inkscape:connector-curvature="0" />
      <path
         d="m 329.61806,500.54353 c -1.4175,0 -2.70625,0.46 -3.5925,1.27 l 0,-1.05625 -3.21,0 0,13.6025 3.21,0 0,-8.51 c 0.5025,-1.45875 1.55,-2.22875 3.0325,-2.22875 1.8825,0 2.89875,1.46625 2.89875,2.845 l 0,7.89375 3.21,0 0,-7.9475 c 0,-3.565 -2.1775,-5.86875 -5.54875,-5.86875"
         style="fill:#231f20;fill-opacity:1;fill-rule:nonzero;stroke:none"
         id="path372"
         inkscape:connector-curvature="0" />
      <path
         d="m 343.86755,500.54403 c -3.97,0 -6.9625,3.015 -6.9625,7.015 0,3.99875 3.01625,7.015 7.015,7.015 2.19625,0 4.2675,-0.885 5.5425,-2.3675 l 0.0812,-0.0937 -2.16,-2.30875 -0.1025,0.11375 c -0.49375,0.55 -1.58625,1.47375 -3.36125,1.47375 -1.8725,0 -3.3275,-1.15625 -3.67125,-2.89375 l 10.1275,0 0,-0.945 c -0.19,-4.3225 -2.6825,-7.00875 -6.50875,-7.00875 m -3.515,5.41 c 0.495,-1.4675 1.80125,-2.44 3.30125,-2.44 1.6975,0 2.82375,0.865 3.18625,2.44 l -6.4875,0 z"
         style="fill:#231f20;fill-opacity:1;fill-rule:nonzero;stroke:none"
         id="path376"
         inkscape:connector-curvature="0" />
      <path
         d="m 358.83893,503.67377 c 1.49125,0 2.4475,0.7425 2.98625,1.365 l 0.0987,0.11375 2.1975,-2.255 -0.09,-0.0962 c -1.35875,-1.4775 -3.15375,-2.2575 -5.1925,-2.2575 -3.99875,0 -7.015,3.01625 -7.015,7.015 0,3.99875 3.01625,7.015 7.015,7.015 2.03875,0 3.83375,-0.78 5.1925,-2.2575 l 0.09,-0.0962 -2.1975,-2.255 -0.0987,0.11375 c -0.53875,0.62375 -1.495,1.365 -2.98625,1.365 -2.15875,0 -3.725,-1.63375 -3.725,-3.885 0,-2.25125 1.56625,-3.885 3.725,-3.885"
         style="fill:#231f20;fill-opacity:1;fill-rule:nonzero;stroke:none"
         id="path380"
         inkscape:connector-curvature="0" />
      <path
         d="m 374.0248,503.64728 0.7075,-2.89 -4.08875,0 0,-4.0825 -3.21,1.57625 0,2.50625 -2.62375,0 0.7075,2.89 1.91625,0 0,6.52375 c 0,2.6225 1.57625,4.18875 4.2175,4.18875 l 2.72375,0 0,-2.96875 -1.97875,0 c -1.49,0 -1.7525,-0.59125 -1.7525,-1.83375 l 0,-5.91 3.38125,0 z"
         style="fill:#231f20;fill-opacity:1;fill-rule:nonzero;stroke:none"
         id="path384"
         inkscape:connector-curvature="0" />
      <path
         d="m 385.83043,501.60203 c -0.96625,-0.69375 -2.14625,-1.05875 -3.4325,-1.05875 -3.98375,0 -6.9875,3.01625 -6.9875,7.015 0,4 3.00375,7.01625 6.9875,7.01625 1.305,0 2.485,-0.35625 3.4325,-1.0325 l 0,0.81875 3.21,0 0,-13.60375 -3.21,0 0,0.845 z m 0,3.73375 0,4.44625 c -0.71625,1.05875 -2.0175,1.715 -3.405,1.715 -2.15875,0 -3.725,-1.65625 -3.725,-3.93875 0,-2.28125 1.56625,-3.9375 3.725,-3.9375 1.3875,0 2.68875,0.65625 3.405,1.715"
         style="fill:#231f20;fill-opacity:1;fill-rule:nonzero;stroke:none"
         id="path388"
         inkscape:connector-curvature="0" />
      <path
         d="m 399.21156,500.65277 c -0.3,-0.0537 -0.63125,-0.0825 -0.985,-0.0825 -1.35375,0 -2.46125,0.42875 -3.29875,1.2725 l 0,-1.085 -3.21,0 0,13.6025 3.21,0 0,-9.05875 c 0.665,-1.23375 1.88375,-1.495 2.7925,-1.495 0.58625,0 1.065,0.0613 1.4225,0.18 l 0.1825,0.0612 0,-3.37375 -0.11375,-0.0213 z"
         style="fill:#231f20;fill-opacity:1;fill-rule:nonzero;stroke:none"
         id="path392"
         inkscape:connector-curvature="0" />
    </g>
  </g>
</svg>
